<?xml version="1.0" encoding="UTF-8"?>
<svg xmlns="http://www.w3.org/2000/svg" xmlns:xlink="http://www.w3.org/1999/xlink" width="382.5pt" height="382.499997pt" viewBox="0 0 382.5 382.499997" version="1.2">
<defs>
<clipPath id="clip1">
  <path d="M 26 7.195312 L 356 7.195312 L 356 375.445312 L 26 375.445312 Z M 26 7.195312 "/>
</clipPath>
</defs>
<g id="surface1">
<g clip-path="url(#clip1)" clip-rule="nonzero">
<path style=" stroke:none;fill-rule:nonzero;fill:rgb(100%,100%,100%);fill-opacity:1;" d="M 324.234375 83.515625 L 321.417969 83.515625 C 321.503906 83.425781 339.496094 65.503906 339.578125 65.414062 C 352.523438 51.941406 352.375 30.554688 339.09375 17.273438 C 325.453125 3.632812 303.675781 4.140625 290.78125 16.957031 L 224.453125 83.515625 L 58.40625 83.515625 C 40.988281 83.515625 26.824219 97.679688 26.824219 115.097656 L 26.824219 267.84375 C 26.824219 285.261719 40.988281 299.425781 58.40625 299.425781 L 153.078125 299.425781 L 148.964844 353.78125 L 130.59375 353.78125 C 124.617188 353.78125 119.761719 358.632812 119.761719 364.613281 C 119.761719 370.589844 124.617188 375.445312 130.59375 375.445312 L 252.042969 375.445312 C 258.019531 375.445312 262.871094 370.589844 262.871094 364.613281 C 262.871094 358.632812 258.019531 353.78125 252.042969 353.78125 L 233.671875 353.78125 L 229.558594 299.425781 L 324.230469 299.425781 C 341.644531 299.425781 355.8125 285.261719 355.8125 267.84375 L 355.8125 115.097656 C 355.816406 97.679688 341.648438 83.515625 324.234375 83.515625 Z M 334.152344 267.84375 C 334.152344 273.316406 329.707031 277.765625 324.234375 277.765625 C 306.152344 277.765625 66.21875 277.765625 58.40625 277.765625 C 52.929688 277.765625 48.484375 273.316406 48.484375 267.84375 L 48.484375 115.097656 C 48.484375 109.625 52.929688 105.175781 58.40625 105.175781 L 202.863281 105.175781 L 177.933594 130.195312 C 162 128.476562 145.675781 133.691406 133.546875 145.828125 C 116.714844 162.644531 108.355469 215.777344 105.871094 238.550781 C 105.125 245.453125 110.980469 251.246094 117.816406 250.488281 C 141.25 247.9375 193.800781 239.609375 210.539062 222.816406 C 222.550781 210.808594 227.910156 194.550781 226.171875 178.433594 L 299.683594 105.175781 L 324.234375 105.175781 C 329.707031 105.175781 334.152344 109.621094 334.152344 115.097656 Z M 211.945312 353.78125 L 170.691406 353.78125 L 174.804688 299.425781 L 207.832031 299.425781 Z M 306.03125 32.34375 C 310.996094 27.648438 318.933594 27.75 323.769531 32.589844 C 328.617188 37.433594 328.714844 45.367188 324.023438 50.335938 C 253.640625 120.472656 324.941406 49.421875 218.34375 155.652344 C 214.035156 148.710938 207.964844 142.511719 200.710938 138.023438 C 251.503906 87.050781 205.609375 133.105469 306.03125 32.34375 Z M 129.203125 227.164062 C 131.347656 212.867188 138.761719 171.234375 148.863281 161.140625 C 161.628906 148.359375 182.390625 148.308594 195.226562 161.140625 C 208.03125 173.945312 207.972656 194.753906 195.226562 207.503906 C 185.085938 217.644531 143.394531 225.039062 129.203125 227.164062 Z M 129.203125 227.164062 "/>
</g>
</g>
</svg>
