<?xml version="1.0" encoding="UTF-8"?>
<svg xmlns="http://www.w3.org/2000/svg" xmlns:xlink="http://www.w3.org/1999/xlink" width="382.5pt" height="382.499997pt" viewBox="0 0 382.5 382.499997" version="1.2">
<defs>
<clipPath id="clip1">
  <path d="M 3.945312 29 L 378.195312 29 L 378.195312 360 L 3.945312 360 Z M 3.945312 29 "/>
</clipPath>
<clipPath id="clip2">
  <path d="M 3.945312 101 L 378.195312 101 L 378.195312 115 L 3.945312 115 Z M 3.945312 101 "/>
</clipPath>
</defs>
<g id="surface1">
<g clip-path="url(#clip1)" clip-rule="nonzero">
<path style=" stroke:none;fill-rule:nonzero;fill:rgb(100%,100%,100%);fill-opacity:1;" d="M 335.707031 359.816406 L 46.433594 359.816406 C 23.007812 359.816406 3.945312 340.753906 3.945312 317.328125 L 3.945312 72.074219 C 3.945312 48.648438 23.007812 29.585938 46.433594 29.585938 L 335.707031 29.585938 C 359.132812 29.585938 378.195312 48.648438 378.195312 72.074219 L 378.195312 317.328125 C 378.195312 340.753906 359.132812 359.816406 335.707031 359.816406 Z M 46.433594 42.242188 C 29.984375 42.242188 16.601562 55.625 16.601562 72.074219 L 16.601562 317.328125 C 16.601562 333.777344 29.984375 347.160156 46.433594 347.160156 L 335.707031 347.160156 C 352.15625 347.160156 365.539062 333.777344 365.539062 317.328125 L 365.539062 72.074219 C 365.539062 55.625 352.15625 42.242188 335.707031 42.242188 Z M 46.433594 42.242188 "/>
</g>
<path style=" stroke:none;fill-rule:nonzero;fill:rgb(100%,100%,100%);fill-opacity:1;" d="M 321.082031 263.207031 L 221.648438 263.207031 C 218.152344 263.207031 215.320312 260.375 215.320312 256.878906 C 215.320312 253.386719 218.152344 250.550781 221.648438 250.550781 L 321.082031 250.550781 C 324.574219 250.550781 327.410156 253.386719 327.410156 256.878906 C 327.410156 260.375 324.578125 263.207031 321.082031 263.207031 Z M 321.082031 263.207031 "/>
<path style=" stroke:none;fill-rule:nonzero;fill:rgb(100%,100%,100%);fill-opacity:1;" d="M 321.082031 308.957031 L 221.648438 308.957031 C 218.152344 308.957031 215.320312 306.125 215.320312 302.628906 C 215.320312 299.136719 218.152344 296.300781 221.648438 296.300781 L 321.082031 296.300781 C 324.574219 296.300781 327.410156 299.136719 327.410156 302.628906 C 327.410156 306.125 324.578125 308.957031 321.082031 308.957031 Z M 321.082031 308.957031 "/>
<path style=" stroke:none;fill-rule:nonzero;fill:rgb(100%,100%,100%);fill-opacity:1;" d="M 321.082031 171.707031 L 221.648438 171.707031 C 218.152344 171.707031 215.320312 168.875 215.320312 165.378906 C 215.320312 161.886719 218.152344 159.050781 221.648438 159.050781 L 321.082031 159.050781 C 324.574219 159.050781 327.410156 161.886719 327.410156 165.378906 C 327.410156 168.875 324.578125 171.707031 321.082031 171.707031 Z M 321.082031 171.707031 "/>
<path style=" stroke:none;fill-rule:nonzero;fill:rgb(100%,100%,100%);fill-opacity:1;" d="M 321.082031 217.457031 L 221.648438 217.457031 C 218.152344 217.457031 215.320312 214.625 215.320312 211.128906 C 215.320312 207.636719 218.152344 204.800781 221.648438 204.800781 L 321.082031 204.800781 C 324.574219 204.800781 327.410156 207.636719 327.410156 211.128906 C 327.410156 214.625 324.578125 217.457031 321.082031 217.457031 Z M 321.082031 217.457031 "/>
<g clip-path="url(#clip2)" clip-rule="nonzero">
<path style=" stroke:none;fill-rule:nonzero;fill:rgb(100%,100%,100%);fill-opacity:1;" d="M 371.867188 114.316406 L 10.273438 114.316406 C 6.777344 114.316406 3.945312 111.484375 3.945312 107.988281 C 3.945312 104.492188 6.777344 101.660156 10.273438 101.660156 L 371.867188 101.660156 C 375.363281 101.660156 378.195312 104.492188 378.195312 107.988281 C 378.195312 111.484375 375.363281 114.316406 371.867188 114.316406 Z M 371.867188 114.316406 "/>
</g>
<path style=" stroke:none;fill-rule:nonzero;fill:rgb(100%,100%,100%);fill-opacity:1;" d="M 95.171875 91.765625 C 84.3125 91.765625 75.476562 82.933594 75.476562 72.074219 C 75.476562 61.214844 84.3125 52.382812 95.171875 52.382812 C 106.027344 52.382812 114.859375 61.214844 114.859375 72.074219 C 114.859375 82.933594 106.027344 91.765625 95.171875 91.765625 Z M 95.171875 65.039062 C 91.289062 65.039062 88.132812 68.195312 88.132812 72.074219 C 88.132812 75.953125 91.289062 79.109375 95.171875 79.109375 C 99.046875 79.109375 102.203125 75.953125 102.203125 72.074219 C 102.203125 68.195312 99.046875 65.039062 95.171875 65.039062 Z M 95.171875 65.039062 "/>
<path style=" stroke:none;fill-rule:nonzero;fill:rgb(100%,100%,100%);fill-opacity:1;" d="M 49.574219 91.765625 C 38.722656 91.765625 29.886719 82.933594 29.886719 72.074219 C 29.886719 61.214844 38.722656 52.382812 49.574219 52.382812 C 60.433594 52.382812 69.269531 61.214844 69.269531 72.074219 C 69.269531 82.933594 60.433594 91.765625 49.574219 91.765625 Z M 49.574219 65.039062 C 45.699219 65.039062 42.542969 68.195312 42.542969 72.074219 C 42.542969 75.953125 45.699219 79.109375 49.574219 79.109375 C 53.457031 79.109375 56.613281 75.953125 56.613281 72.074219 C 56.613281 68.195312 53.457031 65.039062 49.574219 65.039062 Z M 49.574219 65.039062 "/>
<path style=" stroke:none;fill-rule:nonzero;fill:rgb(100%,100%,100%);fill-opacity:1;" d="M 140.761719 91.765625 C 129.902344 91.765625 121.070312 82.933594 121.070312 72.074219 C 121.070312 61.214844 129.902344 52.382812 140.761719 52.382812 C 151.621094 52.382812 160.457031 61.214844 160.457031 72.074219 C 160.457031 82.933594 151.621094 91.765625 140.761719 91.765625 Z M 140.761719 65.039062 C 136.878906 65.039062 133.726562 68.195312 133.726562 72.074219 C 133.726562 75.953125 136.882812 79.109375 140.761719 79.109375 C 144.640625 79.109375 147.800781 75.953125 147.800781 72.074219 C 147.800781 68.195312 144.640625 65.039062 140.761719 65.039062 Z M 140.761719 65.039062 "/>
<path style=" stroke:none;fill-rule:nonzero;fill:rgb(100%,100%,100%);fill-opacity:1;" d="M 173.894531 308.957031 L 59.089844 308.957031 C 55.59375 308.957031 52.761719 306.125 52.761719 302.628906 L 52.761719 165.378906 C 52.761719 161.886719 55.59375 159.050781 59.089844 159.050781 L 173.894531 159.050781 C 177.390625 159.050781 180.222656 161.886719 180.222656 165.378906 L 180.222656 302.628906 C 180.222656 306.125 177.390625 308.957031 173.894531 308.957031 Z M 65.417969 296.300781 L 167.566406 296.300781 L 167.566406 171.707031 L 65.417969 171.707031 Z M 65.417969 296.300781 "/>
</g>
</svg>
