<?xml version="1.0" encoding="UTF-8"?>
<svg xmlns="http://www.w3.org/2000/svg" xmlns:xlink="http://www.w3.org/1999/xlink" width="382.5pt" height="382.499997pt" viewBox="0 0 382.5 382.499997" version="1.2">
<defs>
<clipPath id="clip1">
  <path d="M 0 5 L 382 5 L 382 377 L 0 377 Z M 0 5 "/>
</clipPath>
</defs>
<g id="surface1">
<path style=" stroke:none;fill-rule:nonzero;fill:rgb(100%,100%,100%);fill-opacity:1;" d="M 147.613281 246.292969 L 239.089844 246.292969 C 246.734375 246.292969 252.929688 240.097656 252.929688 232.453125 C 252.929688 224.808594 246.734375 218.613281 239.089844 218.613281 L 147.613281 218.613281 C 139.972656 218.613281 133.773438 224.808594 133.773438 232.453125 C 133.773438 240.097656 139.972656 246.292969 147.613281 246.292969 Z M 147.613281 246.292969 "/>
<path style=" stroke:none;fill-rule:nonzero;fill:rgb(100%,100%,100%);fill-opacity:1;" d="M 239.089844 246.617188 L 147.613281 246.617188 C 139.804688 246.617188 133.453125 240.261719 133.453125 232.453125 C 133.453125 224.644531 139.804688 218.289062 147.613281 218.289062 L 239.089844 218.289062 C 246.898438 218.289062 253.25 224.644531 253.25 232.453125 C 253.25 240.261719 246.898438 246.617188 239.089844 246.617188 Z M 147.613281 218.9375 C 140.160156 218.9375 134.097656 225 134.097656 232.453125 C 134.097656 239.90625 140.160156 245.96875 147.613281 245.96875 L 239.089844 245.96875 C 246.542969 245.96875 252.605469 239.90625 252.605469 232.453125 C 252.605469 225 246.542969 218.9375 239.089844 218.9375 Z M 147.613281 218.9375 "/>
<path style=" stroke:none;fill-rule:nonzero;fill:rgb(100%,100%,100%);fill-opacity:1;" d="M 64.347656 234.449219 C 67.050781 237.152344 70.59375 238.503906 74.136719 238.503906 C 77.675781 238.503906 81.21875 237.152344 83.921875 234.449219 L 120.554688 197.816406 C 123.273438 195.097656 124.625 191.523438 124.605469 187.960938 C 124.625 184.394531 123.273438 180.824219 120.554688 178.105469 L 83.921875 141.472656 C 78.515625 136.066406 69.753906 136.066406 64.347656 141.472656 C 58.945312 146.875 58.945312 155.636719 64.347656 161.042969 L 91.265625 187.960938 L 64.347656 214.878906 C 58.945312 220.28125 58.945312 229.046875 64.347656 234.449219 Z M 64.347656 234.449219 "/>
<path style=" stroke:none;fill-rule:nonzero;fill:rgb(100%,100%,100%);fill-opacity:1;" d="M 74.136719 238.828125 C 70.351562 238.828125 66.796875 237.351562 64.121094 234.679688 C 61.445312 232.003906 59.972656 228.445312 59.972656 224.664062 C 59.972656 220.882812 61.445312 217.324219 64.121094 214.648438 L 90.808594 187.960938 L 64.121094 161.269531 C 58.597656 155.75 58.597656 146.765625 64.121094 141.242188 C 66.796875 138.566406 70.351562 137.09375 74.136719 137.09375 C 77.917969 137.09375 81.472656 138.566406 84.148438 141.242188 L 120.78125 177.875 C 123.476562 180.566406 124.949219 184.148438 124.929688 187.960938 C 124.949219 191.769531 123.476562 195.351562 120.78125 198.042969 L 84.148438 234.675781 C 81.476562 237.351562 77.917969 238.828125 74.136719 238.828125 Z M 74.136719 137.738281 C 70.523438 137.738281 67.132812 139.144531 64.578125 141.699219 C 59.308594 146.96875 59.308594 155.542969 64.578125 160.8125 L 91.722656 187.960938 L 64.578125 215.105469 C 62.023438 217.660156 60.621094 221.054688 60.621094 224.664062 C 60.621094 228.273438 62.023438 231.667969 64.578125 234.222656 C 67.132812 236.773438 70.523438 238.179688 74.136719 238.179688 C 77.746094 238.179688 81.140625 236.773438 83.691406 234.222656 L 120.328125 197.585938 C 122.898438 195.019531 124.300781 191.597656 124.285156 187.960938 C 124.300781 184.320312 122.898438 180.902344 120.328125 178.332031 L 83.691406 141.699219 C 81.140625 139.144531 77.746094 137.738281 74.136719 137.738281 Z M 74.136719 137.738281 "/>
<g clip-path="url(#clip1)" clip-rule="nonzero">
<path style=" stroke:none;fill-rule:nonzero;fill:rgb(100%,100%,100%);fill-opacity:1;" d="M 0.324219 339.109375 C 0.324219 359.820312 17.175781 376.671875 37.886719 376.671875 L 344.613281 376.671875 C 365.324219 376.671875 382.175781 359.820312 382.175781 339.109375 L 382.175781 43.390625 C 382.175781 22.679688 365.324219 5.828125 344.613281 5.828125 L 37.886719 5.828125 C 17.175781 5.828125 0.324219 22.679688 0.324219 43.390625 Z M 354.5 339.109375 C 354.5 344.566406 350.070312 348.992188 344.613281 348.992188 L 37.886719 348.992188 C 32.425781 348.992188 28 344.566406 28 339.109375 L 28 113.378906 L 354.496094 113.378906 L 354.496094 339.109375 Z M 28 43.390625 C 28 37.933594 32.425781 33.507812 37.886719 33.507812 L 344.613281 33.507812 C 350.070312 33.507812 354.5 37.933594 354.5 43.390625 L 354.5 85.699219 L 28 85.699219 Z M 28 43.390625 "/>
<path style=" stroke:none;fill-rule:nonzero;fill:rgb(100%,100%,100%);fill-opacity:1;" d="M 344.613281 376.996094 L 37.886719 376.996094 C 16.996094 376.996094 0 360 0 339.109375 L 0 43.390625 C 0 22.5 16.996094 5.503906 37.886719 5.503906 L 344.613281 5.503906 C 365.503906 5.503906 382.5 22.5 382.5 43.390625 L 382.5 339.109375 C 382.5 360 365.503906 376.996094 344.613281 376.996094 Z M 37.886719 6.152344 C 17.351562 6.152344 0.644531 22.855469 0.644531 43.390625 L 0.644531 339.109375 C 0.644531 359.640625 17.351562 376.347656 37.886719 376.347656 L 344.613281 376.347656 C 365.148438 376.347656 381.855469 359.644531 381.855469 339.109375 L 381.855469 43.390625 C 381.855469 22.855469 365.148438 6.148438 344.613281 6.148438 L 37.886719 6.148438 Z M 344.613281 349.316406 L 37.886719 349.316406 C 32.257812 349.316406 27.679688 344.738281 27.679688 339.109375 L 27.679688 113.054688 L 354.820312 113.054688 L 354.820312 339.109375 C 354.820312 344.738281 350.242188 349.316406 344.613281 349.316406 Z M 28.324219 113.703125 L 28.324219 339.109375 C 28.324219 344.382812 32.613281 348.671875 37.886719 348.671875 L 344.613281 348.671875 C 349.886719 348.671875 354.175781 344.382812 354.175781 339.109375 L 354.175781 113.703125 Z M 354.820312 86.023438 L 27.679688 86.023438 L 27.679688 43.390625 C 27.679688 37.761719 32.257812 33.183594 37.886719 33.183594 L 344.613281 33.183594 C 350.242188 33.183594 354.820312 37.761719 354.820312 43.390625 Z M 28.324219 85.378906 L 354.175781 85.378906 L 354.175781 43.390625 C 354.175781 38.117188 349.882812 33.828125 344.613281 33.828125 L 37.886719 33.828125 C 32.613281 33.828125 28.324219 38.117188 28.324219 43.390625 Z M 28.324219 85.378906 "/>
</g>
</g>
</svg>
