<?xml version="1.0" encoding="UTF-8"?>
<svg xmlns="http://www.w3.org/2000/svg" xmlns:xlink="http://www.w3.org/1999/xlink" width="192pt" height="191.999996pt" viewBox="0 0 192 191.999996" version="1.2">
<g id="surface1">
<path style=" stroke:none;fill-rule:nonzero;fill:rgb(100%,100%,100%);fill-opacity:1;" d="M 96 17.296875 C 121.632812 17.296875 124.667969 17.394531 134.792969 17.855469 C 144.152344 18.285156 149.234375 19.847656 152.617188 21.164062 C 157.097656 22.902344 160.296875 24.984375 163.65625 28.34375 C 167.015625 31.703125 169.097656 34.902344 170.835938 39.382812 C 172.152344 42.765625 173.714844 47.847656 174.144531 57.207031 C 174.605469 67.332031 174.703125 70.367188 174.703125 96 C 174.703125 121.632812 174.605469 124.667969 174.144531 134.792969 C 173.714844 144.152344 172.152344 149.234375 170.835938 152.617188 C 169.097656 157.097656 167.015625 160.296875 163.65625 163.65625 C 160.296875 167.015625 157.097656 169.097656 152.617188 170.835938 C 149.234375 172.152344 144.152344 173.714844 134.792969 174.144531 C 124.671875 174.605469 121.632812 174.703125 96 174.703125 C 70.363281 174.703125 67.328125 174.605469 57.207031 174.144531 C 47.847656 173.714844 42.765625 172.152344 39.382812 170.835938 C 34.902344 169.097656 31.703125 167.015625 28.34375 163.65625 C 24.984375 160.296875 22.902344 157.097656 21.164062 152.617188 C 19.847656 149.234375 18.285156 144.152344 17.855469 134.792969 C 17.394531 124.667969 17.296875 121.632812 17.296875 96 C 17.296875 70.367188 17.394531 67.332031 17.855469 57.207031 C 18.285156 47.847656 19.847656 42.765625 21.164062 39.382812 C 22.902344 34.902344 24.984375 31.703125 28.34375 28.34375 C 31.703125 24.984375 34.902344 22.902344 39.382812 21.164062 C 42.765625 19.847656 47.847656 18.285156 57.207031 17.855469 C 67.332031 17.394531 70.367188 17.296875 96 17.296875 M 96 0 C 69.925781 0 66.660156 0.109375 56.417969 0.578125 C 46.199219 1.042969 39.222656 2.667969 33.117188 5.039062 C 26.804688 7.492188 21.449219 10.777344 16.113281 16.113281 C 10.777344 21.449219 7.492188 26.804688 5.039062 33.117188 C 2.667969 39.222656 1.042969 46.203125 0.578125 56.417969 C 0.109375 66.660156 0 69.929688 0 96 C 0 122.074219 0.109375 125.339844 0.578125 135.582031 C 1.042969 145.800781 2.667969 152.777344 5.039062 158.882812 C 7.492188 165.195312 10.777344 170.550781 16.113281 175.886719 C 21.449219 181.222656 26.804688 184.507812 33.117188 186.960938 C 39.222656 189.332031 46.199219 190.957031 56.417969 191.421875 C 66.660156 191.890625 69.925781 192 96 192 C 122.070312 192 125.339844 191.890625 135.582031 191.421875 C 145.796875 190.957031 152.777344 189.332031 158.882812 186.960938 C 165.195312 184.507812 170.550781 181.222656 175.886719 175.886719 C 181.222656 170.550781 184.507812 165.195312 186.960938 158.882812 C 189.332031 152.777344 190.957031 145.800781 191.421875 135.582031 C 191.890625 125.339844 192 122.074219 192 96 C 192 69.929688 191.890625 66.660156 191.421875 56.417969 C 190.957031 46.203125 189.332031 39.222656 186.960938 33.117188 C 184.507812 26.804688 181.222656 21.449219 175.886719 16.113281 C 170.550781 10.777344 165.195312 7.492188 158.882812 5.039062 C 152.777344 2.667969 145.796875 1.042969 135.582031 0.578125 C 125.339844 0.109375 122.070312 0 96 0 Z M 96 46.703125 C 68.773438 46.703125 46.703125 68.773438 46.703125 96 C 46.703125 123.226562 68.773438 145.296875 96 145.296875 C 123.226562 145.296875 145.296875 123.226562 145.296875 96 C 145.296875 68.773438 123.226562 46.703125 96 46.703125 Z M 96 128 C 78.328125 128 64 113.671875 64 96 C 64 78.328125 78.328125 64 96 64 C 113.671875 64 128 78.328125 128 96 C 128 113.671875 113.671875 128 96 128 Z M 158.765625 44.753906 C 158.765625 51.117188 153.605469 56.273438 147.246094 56.273438 C 140.882812 56.273438 135.726562 51.117188 135.726562 44.753906 C 135.726562 38.394531 140.882812 33.234375 147.246094 33.234375 C 153.605469 33.234375 158.765625 38.394531 158.765625 44.753906 Z M 158.765625 44.753906 "/>
</g>
</svg>
