<?xml version="1.0" encoding="UTF-8"?>
<svg xmlns="http://www.w3.org/2000/svg" xmlns:xlink="http://www.w3.org/1999/xlink" width="375pt" height="374.999991pt" viewBox="0 0 375 374.999991" version="1.2">
<g id="surface1">
<path style=" stroke:none;fill-rule:nonzero;fill:rgb(100%,100%,100%);fill-opacity:1;" d="M 138.246094 289.890625 C 138.246094 289.890625 123.941406 298.210938 148.425781 301.023438 C 178.085938 304.410156 193.246094 303.921875 225.9375 297.734375 C 225.9375 297.734375 234.53125 303.125 246.53125 307.792969 C 173.253906 339.199219 80.6875 305.972656 138.246094 289.890625 "/>
<path style=" stroke:none;fill-rule:nonzero;fill:rgb(100%,100%,100%);fill-opacity:1;" d="M 129.289062 248.90625 C 129.289062 248.90625 113.246094 260.785156 137.75 263.320312 C 169.4375 266.585938 194.460938 266.855469 237.761719 258.515625 C 237.761719 258.515625 243.75 264.589844 253.167969 267.910156 C 164.566406 293.816406 65.886719 269.953125 129.289062 248.90625 "/>
<path style=" stroke:none;fill-rule:nonzero;fill:rgb(100%,100%,100%);fill-opacity:1;" d="M 204.777344 179.386719 C 222.832031 200.175781 200.035156 218.882812 200.035156 218.882812 C 200.035156 218.882812 245.882812 195.214844 224.824219 165.578125 C 205.160156 137.9375 190.078125 124.207031 271.71875 76.859375 C 271.71875 76.859375 143.570312 108.863281 204.777344 179.386719 "/>
<path style=" stroke:none;fill-rule:nonzero;fill:rgb(100%,100%,100%);fill-opacity:1;" d="M 301.695312 320.203125 C 301.695312 320.203125 312.28125 328.925781 290.035156 335.675781 C 247.738281 348.488281 113.988281 352.355469 76.835938 336.183594 C 63.480469 330.375 88.527344 322.3125 96.40625 320.617188 C 104.621094 318.835938 109.316406 319.167969 109.316406 319.167969 C 94.464844 308.707031 13.308594 339.714844 68.09375 348.59375 C 217.5 372.824219 340.449219 337.683594 301.695312 320.203125 "/>
<path style=" stroke:none;fill-rule:nonzero;fill:rgb(100%,100%,100%);fill-opacity:1;" d="M 145.125 206.445312 C 145.125 206.445312 77.089844 222.605469 121.03125 228.472656 C 139.585938 230.957031 176.570312 230.394531 211.019531 227.507812 C 239.175781 225.132812 267.449219 220.082031 267.449219 220.082031 C 267.449219 220.082031 257.519531 224.335938 250.335938 229.238281 C 181.25 247.410156 47.789062 238.957031 86.210938 220.371094 C 118.703125 204.664062 145.125 206.445312 145.125 206.445312 "/>
<path style=" stroke:none;fill-rule:nonzero;fill:rgb(100%,100%,100%);fill-opacity:1;" d="M 267.167969 274.664062 C 337.398438 238.167969 304.925781 203.097656 282.261719 207.824219 C 276.707031 208.980469 274.230469 209.980469 274.230469 209.980469 C 274.230469 209.980469 276.292969 206.75 280.230469 205.351562 C 325.066406 189.589844 359.550781 251.84375 265.757812 276.503906 C 265.757812 276.503906 266.84375 275.53125 267.167969 274.664062 "/>
<path style=" stroke:none;fill-rule:nonzero;fill:rgb(100%,100%,100%);fill-opacity:1;" d="M 224.824219 0.402344 C 224.824219 0.402344 263.71875 39.308594 187.9375 99.140625 C 127.164062 147.132812 174.078125 174.496094 187.910156 205.761719 C 152.4375 173.753906 126.40625 145.582031 143.871094 119.359375 C 169.503906 80.867188 240.519531 62.203125 224.824219 0.402344 "/>
<path style=" stroke:none;fill-rule:nonzero;fill:rgb(100%,100%,100%);fill-opacity:1;" d="M 152.023438 373.554688 C 219.4375 377.867188 322.957031 371.160156 325.40625 339.261719 C 325.40625 339.261719 320.695312 351.355469 269.695312 360.957031 C 212.15625 371.785156 141.191406 370.519531 99.101562 363.582031 C 99.105469 363.582031 107.71875 370.710938 152.023438 373.554688 "/>
</g>
</svg>
