<?xml version="1.0" encoding="UTF-8"?>
<svg xmlns="http://www.w3.org/2000/svg" xmlns:xlink="http://www.w3.org/1999/xlink" width="375pt" height="374.999991pt" viewBox="0 0 375 374.999991" version="1.2">
<defs>
<clipPath id="clip1">
  <path d="M 0 25.136719 L 375 25.136719 L 375 349.886719 L 0 349.886719 Z M 0 25.136719 "/>
</clipPath>
</defs>
<g id="surface1">
<g clip-path="url(#clip1)" clip-rule="nonzero">
<path style=" stroke:none;fill-rule:nonzero;fill:rgb(86.268616%,14.898682%,14.898682%);fill-opacity:1;" d="M -99.726562 -124.863281 L 375.023438 -124.863281 L 375.023438 349.886719 L -99.726562 349.886719 Z M -99.726562 -124.863281 "/>
</g>
<path style=" stroke:none;fill-rule:nonzero;fill:rgb(100%,100%,100%);fill-opacity:1;" d="M 25.105469 271.875 L 61.433594 249.886719 C 68.445312 262.3125 74.820312 272.828125 90.113281 272.828125 C 104.773438 272.828125 114.015625 267.09375 114.015625 244.789062 L 114.015625 93.09375 L 158.628906 93.09375 L 158.628906 245.417969 C 158.628906 291.628906 131.542969 312.660156 92.027344 312.660156 C 56.335938 312.660156 35.621094 294.175781 25.101562 271.871094 "/>
<path style=" stroke:none;fill-rule:nonzero;fill:rgb(100%,100%,100%);fill-opacity:1;" d="M 182.863281 267.09375 L 219.191406 246.058594 C 228.753906 261.675781 241.183594 273.148438 263.167969 273.148438 C 281.65625 273.148438 293.445312 263.90625 293.445312 251.15625 C 293.445312 235.863281 281.335938 230.441406 260.9375 221.523438 L 249.789062 216.738281 C 217.597656 203.039062 196.246094 185.832031 196.246094 149.5 C 196.246094 116.039062 221.742188 90.542969 261.578125 90.542969 C 289.941406 90.542969 310.335938 100.421875 324.992188 126.238281 L 290.257812 148.542969 C 282.609375 134.839844 274.324219 129.425781 261.578125 129.425781 C 248.511719 129.425781 240.226562 137.710938 240.226562 148.542969 C 240.226562 161.929688 248.511719 167.347656 267.632812 175.632812 L 278.785156 180.414062 C 316.707031 196.667969 338.058594 213.234375 338.058594 250.519531 C 338.058594 290.675781 306.511719 312.664062 264.125 312.664062 C 222.699219 312.664062 195.929688 292.90625 182.863281 267.09375 "/>
</g>
</svg>
