<?xml version="1.0" encoding="UTF-8"?>
<svg xmlns="http://www.w3.org/2000/svg" xmlns:xlink="http://www.w3.org/1999/xlink" width="375pt" height="374.999991pt" viewBox="0 0 375 374.999991" version="1.2">
<g id="surface1">
<path style=" stroke:none;fill-rule:nonzero;fill:rgb(100%,100%,100%);fill-opacity:1;" d="M 368.398438 85.335938 C 368.53125 85.835938 368.601562 86.347656 368.601562 86.863281 L 368.601562 167.042969 C 368.601562 167.558594 368.535156 168.0625 368.402344 168.558594 C 368.269531 169.058594 368.074219 169.527344 367.816406 169.972656 C 367.558594 170.417969 367.246094 170.824219 366.882812 171.183594 C 366.515625 171.546875 366.109375 171.859375 365.664062 172.113281 L 298.371094 210.859375 L 298.371094 287.652344 C 298.371094 289.742188 297.257812 291.671875 295.445312 292.722656 L 154.972656 373.589844 C 154.652344 373.773438 154.300781 373.890625 153.949219 374.011719 C 153.820312 374.058594 153.695312 374.136719 153.554688 374.175781 C 152.558594 374.4375 151.558594 374.4375 150.558594 374.175781 C 150.398438 374.128906 150.253906 374.042969 150.101562 373.984375 C 149.777344 373.867188 149.441406 373.765625 149.136719 373.589844 L 8.691406 292.722656 C 8.246094 292.46875 7.839844 292.160156 7.476562 291.796875 C 7.113281 291.433594 6.800781 291.027344 6.542969 290.582031 C 6.285156 290.136719 6.089844 289.667969 5.957031 289.171875 C 5.820312 288.671875 5.753906 288.167969 5.753906 287.652344 L 5.753906 47.117188 C 5.753906 46.59375 5.828125 46.082031 5.960938 45.585938 C 6.003906 45.417969 6.105469 45.261719 6.164062 45.09375 C 6.273438 44.789062 6.375 44.472656 6.535156 44.1875 C 6.644531 44 6.808594 43.84375 6.9375 43.667969 C 7.105469 43.4375 7.261719 43.195312 7.457031 42.988281 C 7.625 42.820312 7.84375 42.699219 8.035156 42.550781 C 8.246094 42.375 8.4375 42.1875 8.675781 42.046875 L 8.683594 42.046875 L 78.910156 1.613281 C 79.355469 1.359375 79.824219 1.164062 80.320312 1.03125 C 80.816406 0.898438 81.320312 0.835938 81.832031 0.835938 C 82.347656 0.835938 82.851562 0.898438 83.347656 1.03125 C 83.839844 1.164062 84.3125 1.359375 84.757812 1.613281 L 154.980469 42.046875 L 154.996094 42.046875 C 155.230469 42.195312 155.425781 42.375 155.640625 42.542969 C 155.828125 42.691406 156.042969 42.820312 156.210938 42.984375 C 156.414062 43.195312 156.558594 43.4375 156.734375 43.667969 C 156.859375 43.84375 157.027344 44 157.128906 44.1875 C 157.296875 44.480469 157.394531 44.789062 157.511719 45.09375 C 157.570312 45.261719 157.671875 45.417969 157.714844 45.589844 C 157.851562 46.089844 157.917969 46.601562 157.917969 47.117188 L 157.917969 197.355469 L 216.4375 163.660156 L 216.4375 86.855469 C 216.4375 86.34375 216.511719 85.828125 216.640625 85.335938 C 216.695312 85.160156 216.789062 85.007812 216.847656 84.839844 C 216.964844 84.535156 217.066406 84.21875 217.226562 83.933594 C 217.335938 83.746094 217.496094 83.589844 217.621094 83.414062 C 217.796875 83.179688 217.941406 82.941406 218.148438 82.734375 C 218.316406 82.566406 218.527344 82.445312 218.71875 82.296875 C 218.9375 82.121094 219.125 81.933594 219.359375 81.792969 L 219.367188 81.792969 L 289.601562 41.359375 C 290.046875 41.105469 290.515625 40.910156 291.011719 40.777344 C 291.507812 40.644531 292.011719 40.578125 292.523438 40.578125 C 293.035156 40.578125 293.539062 40.644531 294.035156 40.777344 C 294.53125 40.910156 295.003906 41.105469 295.445312 41.359375 L 365.671875 81.792969 C 365.921875 81.9375 366.109375 82.121094 366.328125 82.289062 C 366.511719 82.4375 366.722656 82.566406 366.890625 82.726562 C 367.097656 82.941406 367.242188 83.179688 367.417969 83.414062 C 367.550781 83.589844 367.710938 83.746094 367.8125 83.933594 C 367.980469 84.21875 368.074219 84.535156 368.191406 84.839844 C 368.257812 85.007812 368.355469 85.160156 368.398438 85.335938 Z M 356.894531 163.660156 L 356.894531 96.984375 L 332.320312 111.132812 L 298.371094 130.679688 L 298.371094 197.355469 L 356.902344 163.660156 Z M 286.671875 284.269531 L 286.671875 217.550781 L 253.273438 236.625 L 157.910156 291.050781 L 157.910156 358.398438 Z M 17.460938 57.238281 L 17.460938 284.269531 L 146.207031 358.390625 L 146.207031 291.058594 L 78.945312 252.992188 L 78.925781 252.980469 L 78.894531 252.964844 C 78.667969 252.832031 78.480469 252.644531 78.265625 252.480469 C 78.085938 252.335938 77.871094 252.21875 77.710938 252.058594 L 77.695312 252.035156 C 77.507812 251.855469 77.375 251.628906 77.214844 251.421875 C 77.070312 251.226562 76.894531 251.058594 76.777344 250.851562 L 76.769531 250.832031 C 76.636719 250.613281 76.558594 250.347656 76.460938 250.101562 C 76.367188 249.878906 76.242188 249.675781 76.183594 249.441406 L 76.183594 249.433594 C 76.113281 249.15625 76.097656 248.863281 76.066406 248.578125 C 76.039062 248.359375 75.980469 248.140625 75.980469 247.921875 L 75.980469 90.933594 L 42.035156 71.378906 L 17.460938 57.246094 Z M 81.839844 13.4375 L 23.328125 47.117188 L 81.824219 80.800781 L 140.328125 47.113281 L 81.824219 13.4375 Z M 112.269531 223.632812 L 146.210938 204.089844 L 146.210938 57.238281 L 121.636719 71.386719 L 87.6875 90.933594 L 87.6875 237.785156 Z M 292.523438 53.183594 L 234.019531 86.863281 L 292.523438 120.542969 L 351.019531 86.855469 Z M 286.671875 130.679688 L 252.71875 111.132812 L 228.144531 96.984375 L 228.144531 163.660156 L 262.085938 183.199219 L 286.671875 197.355469 Z M 152.050781 280.929688 L 237.863281 231.941406 L 280.757812 207.460938 L 222.296875 173.800781 L 154.988281 212.554688 L 93.640625 247.871094 Z M 152.050781 280.929688 "/>
</g>
</svg>
