<?xml version="1.0" encoding="UTF-8"?>
<svg xmlns="http://www.w3.org/2000/svg" xmlns:xlink="http://www.w3.org/1999/xlink" width="375pt" height="374.999991pt" viewBox="0 0 375 374.999991" version="1.2">
<defs>
<clipPath id="clip1">
  <path d="M 0 88.636719 L 375 88.636719 L 375 286.636719 L 0 286.636719 Z M 0 88.636719 "/>
</clipPath>
<clipPath id="clip2">
  <path d="M 374.964844 187.34375 C 374.964844 188.957031 374.890625 190.574219 374.742188 192.1875 C 374.589844 193.800781 374.363281 195.410156 374.0625 197.019531 C 373.761719 198.625 373.386719 200.226562 372.9375 201.828125 C 372.488281 203.425781 371.964844 205.015625 371.363281 206.601562 C 370.765625 208.183594 370.09375 209.761719 369.347656 211.328125 C 368.601562 212.894531 367.785156 214.449219 366.894531 215.996094 C 366.003906 217.542969 365.042969 219.074219 364.007812 220.597656 C 362.972656 222.117188 361.871094 223.625 360.695312 225.117188 C 359.523438 226.609375 358.28125 228.085938 356.96875 229.546875 C 355.65625 231.007812 354.277344 232.449219 352.832031 233.871094 C 351.382812 235.296875 349.871094 236.703125 348.296875 238.089844 C 346.71875 239.472656 345.078125 240.839844 343.371094 242.179688 C 341.667969 243.523438 339.902344 244.84375 338.074219 246.140625 C 336.246094 247.441406 334.359375 248.714844 332.414062 249.960938 C 330.46875 251.210938 328.464844 252.433594 326.402344 253.628906 C 324.34375 254.828125 322.226562 255.996094 320.058594 257.140625 C 317.890625 258.28125 315.667969 259.394531 313.394531 260.480469 C 311.121094 261.566406 308.800781 262.621094 306.425781 263.644531 C 304.054688 264.667969 301.636719 265.664062 299.171875 266.625 C 296.710938 267.585938 294.203125 268.515625 291.652344 269.414062 C 289.101562 270.3125 286.507812 271.175781 283.878906 272.007812 C 281.246094 272.835938 278.578125 273.632812 275.871094 274.394531 C 273.164062 275.15625 270.425781 275.882812 267.652344 276.574219 C 264.878906 277.261719 262.074219 277.917969 259.242188 278.535156 C 256.40625 279.152344 253.542969 279.734375 250.65625 280.28125 C 247.765625 280.824219 244.855469 281.332031 241.917969 281.800781 C 238.984375 282.269531 236.027344 282.699219 233.050781 283.089844 C 230.074219 283.484375 227.082031 283.839844 224.074219 284.152344 C 221.0625 284.46875 218.042969 284.746094 215.007812 284.980469 C 211.972656 285.21875 208.929688 285.417969 205.875 285.574219 C 202.820312 285.734375 199.761719 285.851562 196.699219 285.929688 C 193.632812 286.011719 190.566406 286.050781 187.5 286.050781 C 184.433594 286.050781 181.367188 286.011719 178.300781 285.929688 C 175.238281 285.851562 172.179688 285.734375 169.125 285.574219 C 166.070312 285.417969 163.027344 285.21875 159.992188 284.980469 C 156.957031 284.746094 153.9375 284.46875 150.925781 284.152344 C 147.917969 283.839844 144.925781 283.484375 141.949219 283.089844 C 138.972656 282.699219 136.015625 282.269531 133.082031 281.800781 C 130.144531 281.332031 127.234375 280.824219 124.34375 280.28125 C 121.457031 279.734375 118.59375 279.152344 115.757812 278.535156 C 112.925781 277.917969 110.121094 277.261719 107.347656 276.574219 C 104.574219 275.882812 101.835938 275.15625 99.128906 274.394531 C 96.421875 273.632812 93.753906 272.835938 91.121094 272.007812 C 88.492188 271.175781 85.898438 270.3125 83.347656 269.414062 C 80.796875 268.515625 78.289062 267.585938 75.828125 266.625 C 73.363281 265.664062 70.945312 264.667969 68.574219 263.644531 C 66.199219 262.621094 63.878906 261.566406 61.605469 260.480469 C 59.332031 259.394531 57.109375 258.28125 54.941406 257.140625 C 52.773438 255.996094 50.65625 254.828125 48.597656 253.628906 C 46.535156 252.433594 44.53125 251.210938 42.585938 249.960938 C 40.640625 248.714844 38.753906 247.441406 36.925781 246.140625 C 35.097656 244.84375 33.332031 243.523438 31.628906 242.179688 C 29.921875 240.839844 28.28125 239.472656 26.703125 238.089844 C 25.128906 236.703125 23.617188 235.296875 22.167969 233.871094 C 20.722656 232.449219 19.34375 231.007812 18.03125 229.546875 C 16.71875 228.085938 15.476562 226.609375 14.304688 225.117188 C 13.128906 223.625 12.027344 222.117188 10.992188 220.597656 C 9.957031 219.074219 8.996094 217.542969 8.105469 215.996094 C 7.214844 214.449219 6.398438 212.894531 5.652344 211.328125 C 4.90625 209.761719 4.234375 208.183594 3.636719 206.601562 C 3.035156 205.015625 2.511719 203.425781 2.0625 201.828125 C 1.613281 200.226562 1.238281 198.625 0.9375 197.019531 C 0.636719 195.410156 0.410156 193.800781 0.257812 192.1875 C 0.109375 190.574219 0.0351562 188.957031 0.0351562 187.34375 C 0.0351562 185.726562 0.109375 184.113281 0.257812 182.5 C 0.410156 180.886719 0.636719 179.277344 0.9375 177.667969 C 1.238281 176.058594 1.613281 174.457031 2.0625 172.859375 C 2.511719 171.261719 3.035156 169.671875 3.636719 168.085938 C 4.234375 166.5 4.90625 164.925781 5.652344 163.359375 C 6.398438 161.792969 7.214844 160.234375 8.105469 158.691406 C 8.996094 157.144531 9.957031 155.609375 10.992188 154.089844 C 12.027344 152.570312 13.128906 151.0625 14.304688 149.570312 C 15.476562 148.078125 16.71875 146.601562 18.03125 145.140625 C 19.34375 143.679688 20.722656 142.238281 22.167969 140.8125 C 23.617188 139.386719 25.128906 137.984375 26.703125 136.597656 C 28.28125 135.210938 29.921875 133.847656 31.628906 132.503906 C 33.332031 131.160156 35.097656 129.839844 36.925781 128.542969 C 38.753906 127.246094 40.640625 125.972656 42.585938 124.722656 C 44.53125 123.476562 46.535156 122.253906 48.597656 121.054688 C 50.65625 119.859375 52.773438 118.6875 54.941406 117.546875 C 57.109375 116.40625 59.332031 115.292969 61.605469 114.207031 C 63.878906 113.121094 66.199219 112.066406 68.574219 111.042969 C 70.945312 110.015625 73.363281 109.023438 75.828125 108.0625 C 78.289062 107.097656 80.796875 106.167969 83.347656 105.269531 C 85.898438 104.375 88.492188 103.511719 91.121094 102.679688 C 93.753906 101.847656 96.421875 101.054688 99.128906 100.292969 C 101.835938 99.53125 104.574219 98.804688 107.347656 98.113281 C 110.121094 97.421875 112.925781 96.769531 115.757812 96.148438 C 118.59375 95.53125 121.457031 94.949219 124.34375 94.40625 C 127.234375 93.863281 130.144531 93.355469 133.082031 92.886719 C 136.015625 92.417969 138.972656 91.988281 141.949219 91.59375 C 144.925781 91.203125 147.917969 90.847656 150.925781 90.53125 C 153.9375 90.21875 156.957031 89.941406 159.992188 89.703125 C 163.027344 89.46875 166.070312 89.269531 169.125 89.113281 C 172.179688 88.953125 175.238281 88.835938 178.300781 88.753906 C 181.367188 88.675781 184.433594 88.636719 187.5 88.636719 C 190.566406 88.636719 193.632812 88.675781 196.699219 88.753906 C 199.761719 88.835938 202.820312 88.953125 205.875 89.113281 C 208.929688 89.269531 211.972656 89.46875 215.007812 89.703125 C 218.042969 89.941406 221.0625 90.21875 224.074219 90.53125 C 227.082031 90.847656 230.074219 91.203125 233.050781 91.59375 C 236.027344 91.988281 238.984375 92.417969 241.917969 92.886719 C 244.855469 93.355469 247.765625 93.863281 250.65625 94.40625 C 253.542969 94.949219 256.40625 95.53125 259.242188 96.148438 C 262.074219 96.769531 264.878906 97.421875 267.652344 98.113281 C 270.425781 98.804688 273.164062 99.53125 275.871094 100.292969 C 278.578125 101.054688 281.246094 101.847656 283.878906 102.679688 C 286.507812 103.511719 289.101562 104.375 291.652344 105.269531 C 294.203125 106.167969 296.710938 107.097656 299.171875 108.0625 C 301.636719 109.023438 304.054688 110.015625 306.425781 111.042969 C 308.800781 112.066406 311.121094 113.121094 313.394531 114.207031 C 315.667969 115.292969 317.890625 116.40625 320.058594 117.546875 C 322.226562 118.6875 324.34375 119.859375 326.402344 121.054688 C 328.464844 122.253906 330.46875 123.476562 332.414062 124.722656 C 334.359375 125.972656 336.246094 127.246094 338.074219 128.542969 C 339.902344 129.839844 341.667969 131.160156 343.371094 132.503906 C 345.078125 133.847656 346.71875 135.210938 348.296875 136.597656 C 349.871094 137.984375 351.382812 139.386719 352.832031 140.8125 C 354.277344 142.238281 355.65625 143.679688 356.96875 145.140625 C 358.28125 146.601562 359.523438 148.078125 360.695312 149.570312 C 361.871094 151.0625 362.972656 152.570312 364.007812 154.089844 C 365.042969 155.609375 366.003906 157.144531 366.894531 158.691406 C 367.785156 160.234375 368.601562 161.792969 369.347656 163.359375 C 370.09375 164.925781 370.765625 166.5 371.363281 168.085938 C 371.964844 169.671875 372.488281 171.261719 372.9375 172.859375 C 373.386719 174.457031 373.761719 176.058594 374.0625 177.667969 C 374.363281 179.277344 374.589844 180.886719 374.742188 182.5 C 374.890625 184.113281 374.964844 185.726562 374.964844 187.34375 Z M 374.964844 187.34375 "/>
</clipPath>
<radialGradient id="radial0" gradientUnits="userSpaceOnUse" cx="0.567975" cy="-85.373378" fx="0.567975" fy="-85.373378" r="246.364817" gradientTransform="matrix(0.999289,0,0,1.000711,112.021227,208.782785)">
<stop offset="0" style="stop-color:rgb(86.299133%,14.898682%,14.898682%);stop-opacity:1;"/>
<stop offset="1" style="stop-color:rgb(86.299133%,14.898682%,14.898682%);stop-opacity:1;"/>
</radialGradient>
</defs>
<g id="surface1">
<g clip-path="url(#clip1)" clip-rule="nonzero">
<g clip-path="url(#clip2)" clip-rule="nonzero">
<path style=" stroke:none;fill-rule:nonzero;fill:url(#radial0);" d="M 0.0351562 88.636719 L 0.0351562 286.050781 L 374.964844 286.050781 L 374.964844 88.636719 Z M 0.0351562 88.636719 "/>
</g>
</g>
<path style=" stroke:none;fill-rule:nonzero;fill:rgb(86.268616%,14.898682%,14.898682%);fill-opacity:1;" d="M 367.644531 187.34375 C 367.644531 188.839844 367.570312 190.332031 367.425781 191.828125 C 367.28125 193.320312 367.066406 194.8125 366.777344 196.300781 C 366.488281 197.789062 366.125 199.269531 365.695312 200.75 C 365.261719 202.230469 364.757812 203.703125 364.183594 205.167969 C 363.605469 206.636719 362.960938 208.09375 362.246094 209.546875 C 361.527344 210.996094 360.742188 212.4375 359.886719 213.867188 C 359.03125 215.296875 358.105469 216.71875 357.113281 218.125 C 356.121094 219.535156 355.058594 220.929688 353.929688 222.308594 C 352.804688 223.691406 351.609375 225.058594 350.347656 226.410156 C 349.085938 227.761719 347.761719 229.097656 346.371094 230.417969 C 344.984375 231.734375 343.53125 233.035156 342.015625 234.316406 C 340.5 235.601562 338.921875 236.863281 337.285156 238.105469 C 335.644531 239.351562 333.949219 240.574219 332.191406 241.773438 C 330.4375 242.976562 328.625 244.152344 326.753906 245.308594 C 324.882812 246.464844 322.957031 247.597656 320.976562 248.707031 C 318.996094 249.8125 316.964844 250.894531 314.878906 251.953125 C 312.796875 253.011719 310.660156 254.042969 308.476562 255.046875 C 306.292969 256.050781 304.0625 257.027344 301.78125 257.976562 C 299.503906 258.925781 297.179688 259.84375 294.8125 260.734375 C 292.445312 261.625 290.035156 262.488281 287.582031 263.316406 C 285.132812 264.148438 282.640625 264.949219 280.113281 265.714844 C 277.582031 266.484375 275.019531 267.222656 272.417969 267.925781 C 269.820312 268.632812 267.1875 269.304688 264.519531 269.945312 C 261.855469 270.582031 259.160156 271.1875 256.4375 271.761719 C 253.714844 272.332031 250.964844 272.871094 248.1875 273.375 C 245.414062 273.878906 242.613281 274.347656 239.792969 274.78125 C 236.972656 275.214844 234.132812 275.613281 231.269531 275.976562 C 228.410156 276.339844 225.535156 276.667969 222.644531 276.960938 C 219.753906 277.253906 216.847656 277.507812 213.933594 277.726562 C 211.015625 277.945312 208.089844 278.128906 205.15625 278.277344 C 202.222656 278.421875 199.285156 278.53125 196.339844 278.605469 C 193.394531 278.679688 190.449219 278.714844 187.5 278.714844 C 184.550781 278.714844 181.605469 278.679688 178.660156 278.605469 C 175.714844 278.53125 172.777344 278.421875 169.84375 278.277344 C 166.910156 278.128906 163.984375 277.945312 161.066406 277.726562 C 158.152344 277.507812 155.246094 277.253906 152.355469 276.960938 C 149.464844 276.667969 146.589844 276.339844 143.730469 275.976562 C 140.867188 275.613281 138.027344 275.214844 135.207031 274.78125 C 132.386719 274.347656 129.585938 273.878906 126.8125 273.375 C 124.035156 272.871094 121.285156 272.332031 118.5625 271.761719 C 115.839844 271.1875 113.144531 270.582031 110.480469 269.945312 C 107.8125 269.304688 105.179688 268.632812 102.582031 267.925781 C 99.980469 267.222656 97.417969 266.484375 94.886719 265.714844 C 92.359375 264.949219 89.867188 264.148438 87.417969 263.316406 C 84.964844 262.488281 82.554688 261.625 80.1875 260.734375 C 77.820312 259.84375 75.496094 258.925781 73.21875 257.976562 C 70.9375 257.027344 68.707031 256.050781 66.523438 255.046875 C 64.339844 254.042969 62.203125 253.011719 60.117188 251.953125 C 58.035156 250.894531 56.003906 249.8125 54.023438 248.707031 C 52.042969 247.597656 50.117188 246.464844 48.246094 245.308594 C 46.375 244.152344 44.5625 242.976562 42.808594 241.773438 C 41.050781 240.574219 39.355469 239.351562 37.714844 238.105469 C 36.078125 236.863281 34.5 235.601562 32.984375 234.316406 C 31.46875 233.035156 30.015625 231.734375 28.628906 230.417969 C 27.238281 229.097656 25.914062 227.761719 24.652344 226.410156 C 23.390625 225.058594 22.195312 223.691406 21.070312 222.308594 C 19.941406 220.929688 18.878906 219.535156 17.886719 218.125 C 16.894531 216.71875 15.96875 215.296875 15.113281 213.867188 C 14.257812 212.4375 13.472656 210.996094 12.753906 209.546875 C 12.039062 208.09375 11.394531 206.636719 10.816406 205.167969 C 10.242188 203.703125 9.738281 202.230469 9.304688 200.75 C 8.875 199.269531 8.511719 197.789062 8.222656 196.300781 C 7.933594 194.8125 7.71875 193.320312 7.574219 191.828125 C 7.429688 190.332031 7.355469 188.839844 7.355469 187.34375 C 7.355469 185.847656 7.429688 184.351562 7.574219 182.859375 C 7.71875 181.367188 7.933594 179.875 8.222656 178.386719 C 8.511719 176.898438 8.875 175.414062 9.304688 173.9375 C 9.738281 172.457031 10.242188 170.984375 10.816406 169.515625 C 11.394531 168.050781 12.039062 166.589844 12.753906 165.140625 C 13.472656 163.691406 14.257812 162.25 15.113281 160.820312 C 15.96875 159.386719 16.894531 157.96875 17.886719 156.558594 C 18.878906 155.152344 19.941406 153.757812 21.070312 152.375 C 22.195312 150.996094 23.390625 149.628906 24.652344 148.277344 C 25.914062 146.925781 27.238281 145.589844 28.628906 144.269531 C 30.015625 142.949219 31.46875 141.652344 32.984375 140.367188 C 34.5 139.085938 36.078125 137.820312 37.714844 136.578125 C 39.355469 135.335938 41.050781 134.113281 42.808594 132.910156 C 44.5625 131.710938 46.375 130.53125 48.246094 129.375 C 50.117188 128.21875 52.042969 127.089844 54.023438 125.980469 C 56.003906 124.871094 58.035156 123.789062 60.117188 122.730469 C 62.203125 121.675781 64.339844 120.644531 66.523438 119.640625 C 68.707031 118.636719 70.9375 117.660156 73.21875 116.710938 C 75.496094 115.761719 77.820312 114.84375 80.1875 113.953125 C 82.554688 113.058594 84.964844 112.199219 87.417969 111.367188 C 89.867188 110.539062 92.359375 109.738281 94.886719 108.96875 C 97.417969 108.199219 99.980469 107.464844 102.582031 106.757812 C 105.179688 106.054688 107.8125 105.382812 110.480469 104.742188 C 113.144531 104.101562 115.839844 103.496094 118.5625 102.925781 C 121.285156 102.351562 124.035156 101.816406 126.8125 101.3125 C 129.585938 100.808594 132.386719 100.339844 135.207031 99.902344 C 138.027344 99.46875 140.867188 99.070312 143.730469 98.707031 C 146.589844 98.34375 149.464844 98.015625 152.355469 97.726562 C 155.246094 97.433594 158.152344 97.179688 161.066406 96.957031 C 163.984375 96.738281 166.910156 96.554688 169.84375 96.410156 C 172.777344 96.261719 175.714844 96.152344 178.660156 96.078125 C 181.605469 96.007812 184.550781 95.96875 187.5 95.96875 C 190.449219 95.96875 193.394531 96.007812 196.339844 96.078125 C 199.285156 96.152344 202.222656 96.261719 205.15625 96.410156 C 208.089844 96.554688 211.015625 96.738281 213.933594 96.957031 C 216.847656 97.179688 219.753906 97.433594 222.644531 97.726562 C 225.535156 98.015625 228.410156 98.34375 231.269531 98.707031 C 234.132812 99.070312 236.972656 99.46875 239.792969 99.902344 C 242.613281 100.339844 245.414062 100.808594 248.1875 101.3125 C 250.964844 101.816406 253.714844 102.351562 256.4375 102.925781 C 259.160156 103.496094 261.855469 104.101562 264.519531 104.742188 C 267.1875 105.382812 269.820312 106.054688 272.417969 106.757812 C 275.019531 107.464844 277.582031 108.199219 280.113281 108.96875 C 282.640625 109.738281 285.132812 110.539062 287.582031 111.367188 C 290.035156 112.199219 292.445312 113.058594 294.8125 113.953125 C 297.179688 114.84375 299.503906 115.761719 301.78125 116.710938 C 304.0625 117.660156 306.292969 118.636719 308.476562 119.640625 C 310.660156 120.644531 312.796875 121.675781 314.878906 122.730469 C 316.964844 123.789062 318.996094 124.871094 320.976562 125.980469 C 322.957031 127.089844 324.882812 128.21875 326.753906 129.375 C 328.625 130.53125 330.4375 131.710938 332.191406 132.910156 C 333.949219 134.113281 335.644531 135.335938 337.285156 136.578125 C 338.921875 137.820312 340.5 139.085938 342.015625 140.367188 C 343.53125 141.652344 344.984375 142.949219 346.371094 144.269531 C 347.761719 145.589844 349.085938 146.925781 350.347656 148.277344 C 351.609375 149.628906 352.804688 150.996094 353.929688 152.375 C 355.058594 153.757812 356.121094 155.152344 357.113281 156.558594 C 358.105469 157.96875 359.03125 159.386719 359.886719 160.820312 C 360.742188 162.25 361.527344 163.691406 362.246094 165.140625 C 362.960938 166.589844 363.605469 168.050781 364.183594 169.515625 C 364.757812 170.984375 365.261719 172.457031 365.695312 173.9375 C 366.125 175.414062 366.488281 176.898438 366.777344 178.386719 C 367.066406 179.875 367.28125 181.367188 367.425781 182.859375 C 367.570312 184.351562 367.644531 185.847656 367.644531 187.34375 Z M 367.644531 187.34375 "/>
<path style=" stroke:none;fill-rule:nonzero;fill:rgb(86.268616%,14.898682%,14.898682%);fill-opacity:1;" d="M 223.96875 216.96875 C 223.96875 216.96875 232.902344 170.917969 232.902344 170.917969 C 234.953125 160.503906 233.195312 152.730469 227.921875 147.890625 C 222.796875 143.195312 214.007812 140.851562 201.121094 140.851562 L 185.597656 140.851562 L 189.988281 117.96875 C 190.136719 117.089844 189.988281 116.210938 189.402344 115.476562 C 188.816406 114.742188 188.085938 114.449219 187.207031 114.449219 L 165.824219 114.449219 C 164.359375 114.449219 163.1875 115.476562 162.894531 116.796875 L 153.375 165.636719 C 152.496094 160.0625 150.445312 155.371094 146.929688 151.554688 C 140.632812 144.371094 130.820312 140.703125 117.492188 140.703125 L 76.339844 140.703125 C 74.875 140.703125 73.703125 141.730469 73.410156 143.050781 L 54.222656 242.195312 C 54.078125 243.078125 54.222656 243.957031 54.808594 244.691406 C 55.394531 245.421875 56.125 245.714844 57.003906 245.714844 L 78.535156 245.714844 C 80 245.714844 81.171875 244.691406 81.464844 243.371094 L 86.152344 219.464844 L 102.113281 219.464844 C 110.464844 219.464844 117.640625 218.582031 123.058594 216.824219 C 128.769531 214.917969 133.894531 211.835938 138.4375 207.582031 C 142.097656 204.210938 145.171875 200.394531 147.515625 196.289062 L 143.707031 216.089844 C 143.5625 216.96875 143.707031 217.851562 144.292969 218.582031 C 144.878906 219.316406 145.613281 219.609375 146.492188 219.609375 L 167.875 219.609375 C 169.339844 219.609375 170.511719 218.582031 170.804688 217.261719 L 181.347656 162.996094 L 195.996094 162.996094 C 202.292969 162.996094 204.050781 164.167969 204.636719 164.757812 C 205.074219 165.195312 205.953125 166.957031 204.929688 172.382812 L 196.433594 216.238281 C 196.289062 217.117188 196.433594 217.996094 197.019531 218.730469 C 197.605469 219.464844 198.335938 219.757812 199.214844 219.757812 L 221.183594 219.757812 C 222.503906 219.316406 223.675781 218.289062 223.96875 216.96875 Z M 124.960938 178.835938 C 123.644531 185.730469 121.15625 190.714844 117.492188 193.503906 C 113.832031 196.289062 107.828125 197.757812 99.917969 197.757812 L 90.398438 197.757812 L 97.28125 162.261719 L 109.585938 162.261719 C 118.664062 162.261719 122.324219 164.167969 123.789062 165.78125 C 125.695312 168.128906 126.132812 172.675781 124.960938 178.835938 Z M 124.960938 178.835938 "/>
<path style=" stroke:none;fill-rule:nonzero;fill:rgb(86.268616%,14.898682%,14.898682%);fill-opacity:1;" d="M 315.359375 151.554688 C 309.058594 144.371094 299.246094 140.703125 285.921875 140.703125 L 244.472656 140.703125 C 243.007812 140.703125 241.835938 141.730469 241.542969 143.050781 L 222.355469 242.050781 C 222.210938 242.929688 222.355469 243.808594 222.941406 244.542969 C 223.527344 245.277344 224.261719 245.570312 225.140625 245.570312 L 246.667969 245.570312 C 248.132812 245.570312 249.304688 244.542969 249.597656 243.222656 L 254.285156 219.316406 L 270.25 219.316406 C 278.597656 219.316406 285.773438 218.4375 291.191406 216.675781 C 296.90625 214.769531 302.03125 211.691406 306.570312 207.4375 C 310.378906 203.917969 313.601562 199.957031 315.945312 195.703125 C 318.289062 191.449219 320.042969 186.757812 321.070312 181.621094 C 323.558594 168.863281 321.65625 158.890625 315.359375 151.554688 Z M 292.949219 178.835938 C 291.632812 185.730469 289.140625 190.714844 285.480469 193.503906 C 281.820312 196.289062 275.8125 197.757812 267.90625 197.757812 L 258.386719 197.757812 L 265.269531 162.261719 L 277.570312 162.261719 C 286.652344 162.261719 290.3125 164.167969 291.777344 165.78125 C 293.828125 168.128906 294.269531 172.675781 292.949219 178.835938 Z M 292.949219 178.835938 "/>
<path style=" stroke:none;fill-rule:nonzero;fill:rgb(100%,100%,100%);fill-opacity:1;" d="M 109.585938 159.328125 C 117.785156 159.328125 123.203125 160.796875 125.988281 163.875 C 128.769531 166.957031 129.355469 172.089844 127.890625 179.421875 C 126.425781 187.050781 123.496094 192.621094 119.25 195.851562 C 115.003906 199.078125 108.558594 200.691406 99.917969 200.691406 L 86.882812 200.691406 L 94.9375 159.328125 Z M 57.152344 242.636719 L 78.679688 242.636719 L 83.808594 216.382812 L 102.261719 216.382812 C 110.464844 216.382812 117.054688 215.503906 122.324219 213.742188 C 127.597656 211.984375 132.285156 209.195312 136.679688 205.089844 C 140.339844 201.714844 143.269531 198.050781 145.464844 194.089844 C 147.664062 190.128906 149.273438 185.730469 150.152344 180.890625 C 152.496094 169.15625 150.738281 160.0625 145.027344 153.464844 C 139.316406 146.863281 130.234375 143.636719 117.785156 143.636719 L 76.339844 143.636719 Z M 57.152344 242.636719 "/>
<path style=" stroke:none;fill-rule:nonzero;fill:rgb(100%,100%,100%);fill-opacity:1;" d="M 165.96875 117.382812 L 187.355469 117.382812 L 182.226562 143.636719 L 201.265625 143.636719 C 213.277344 143.636719 221.476562 145.691406 226.019531 149.941406 C 230.558594 154.195312 231.875 160.941406 230.121094 170.328125 L 221.183594 216.382812 L 199.507812 216.382812 L 208.003906 172.53125 C 209.03125 167.542969 208.589844 164.167969 206.980469 162.410156 C 205.367188 160.648438 201.707031 159.621094 196.289062 159.621094 L 179.152344 159.621094 L 168.167969 216.382812 L 146.785156 216.382812 Z M 165.96875 117.382812 "/>
<path style=" stroke:none;fill-rule:nonzero;fill:rgb(100%,100%,100%);fill-opacity:1;" d="M 277.570312 159.328125 C 285.773438 159.328125 291.191406 160.796875 293.976562 163.875 C 296.757812 166.957031 297.34375 172.089844 295.878906 179.421875 C 294.414062 187.050781 291.484375 192.621094 287.238281 195.851562 C 282.992188 199.078125 276.546875 200.691406 267.90625 200.691406 L 254.871094 200.691406 L 262.925781 159.328125 Z M 225.140625 242.636719 L 246.667969 242.636719 L 251.796875 216.382812 L 270.25 216.382812 C 278.449219 216.382812 285.042969 215.503906 290.3125 213.742188 C 295.585938 211.984375 300.273438 209.195312 304.667969 205.089844 C 308.328125 201.714844 311.257812 198.050781 313.453125 194.089844 C 315.652344 190.128906 317.261719 185.730469 318.140625 180.890625 C 320.484375 169.15625 318.726562 160.0625 313.015625 153.464844 C 307.304688 146.863281 298.222656 143.636719 285.773438 143.636719 L 244.324219 143.636719 Z M 225.140625 242.636719 "/>
</g>
</svg>
